Coordinates
version=1
nRows=8
nColumns=40
inDegrees=yes

Units are S.I. units (second, meters, Newtons, ...)
If the header above contains a line with 'inDegrees', this indicates whether rotational values are in degrees (yes) or radians (no).

endheader
time	pelvis_tilt	pelvis_list	pelvis_rotation	pelvis_tx	pelvis_ty	pelvis_tz	hip_flexion_r	hip_adduction_r	hip_rotation_r	knee_angle_r	knee_angle_r_beta	ankle_angle_r	subtalar_angle_r	mtp_angle_r	hip_flexion_l	hip_adduction_l	hip_rotation_l	knee_angle_l	knee_angle_l_beta	ankle_angle_l	subtalar_angle_l	mtp_angle_l	lumbar_extension	lumbar_bending	lumbar_rotation	arm_flex_r	arm_add_r	arm_rot_r	elbow_flex_r	pro_sup_r	wrist_flex_r	wrist_dev_r	arm_flex_l	arm_add_l	arm_rot_l	elbow_flex_l	pro_sup_l	wrist_flex_l	wrist_dev_l
      4.50500000	    -32.70332406	     -1.83153303	     -2.41609609	     -0.39804091	      0.61000022	     -0.90154569	     93.51394822	    -10.26271343	     -5.01619413	     97.86936929	      1.70814273	     37.68923418	      0.00000000	      0.00000000	     95.29462088	    -20.18827208	      1.55954704	     97.21481715	      1.69671864	     36.10990184	      0.00000000	      0.00000000	     -9.65695944	    -13.66984803	     -8.48267693	     18.16926751	    -39.02356192	     81.94247808	     80.15995981	     87.95587424	      0.00000000	      0.00000000	     12.64440988	    -61.01474226	     83.50023554	    105.74916228	     87.86327416	      0.00000000	      0.00000000
      4.51000000	    -32.72191604	     -1.79242356	     -2.45632932	     -0.39820471	      0.61000460	     -0.90148192	     93.56140465	    -10.19059651	     -4.94610814	     97.85251502	      1.70784857	     37.67427340	      0.00000000	      0.00000000	     95.29846924	    -20.21957143	      1.53142083	     97.20254630	      1.69650447	     36.13132968	      0.00000000	      0.00000000	     -9.64761301	    -13.72755351	     -8.41656107	     18.10672733	    -39.02184450	     81.85535059	     80.14114207	     87.94207926	      0.00000000	      0.00000000	     12.75987376	    -61.02035935	     83.61646056	    105.74948945	     87.87521591	      0.00000000	      0.00000000
      4.51500000	    -32.67859143	     -1.78622406	     -2.45824910	     -0.39829727	      0.61008198	     -0.90156993	     93.51224269	    -10.19074245	     -4.93005891	     97.82825400	      1.70742513	     37.74020379	      0.00000000	      0.00000000	     95.25995759	    -20.18876654	      1.54321229	     97.21202755	      1.69666995	     36.11362295	      0.00000000	      0.00000000	     -9.76298760	    -13.69975016	     -8.47419258	     18.22609500	    -39.03589930	     81.98716058	     80.22155183	     87.95911963	      0.00000000	      0.00000000	     12.55084637	    -61.04777197	     83.35464820	    105.77091895	     87.87661815	      0.00000000	      0.00000000
      4.52000000	    -32.68289951	     -1.77496737	     -2.49434602	     -0.39842958	      0.61012472	     -0.90145933	     93.52190529	    -10.13000282	     -4.91508316	     97.82057230	      1.70729106	     37.70711077	      0.00000000	      0.00000000	     95.25783697	    -20.22184742	      1.54000124	     97.18365874	      1.69617482	     36.12681286	      0.00000000	      0.00000000	     -9.72184940	    -13.75103009	     -8.38208218	     18.17205908	    -39.00848369	     81.96708379	     80.17650499	     87.95471673	      0.00000000	      0.00000000	     12.80060027	    -61.01512241	     83.65197819	    105.76915067	     87.86882626	      0.00000000	      0.00000000
      4.52500000	    -32.66830731	     -1.73302084	     -2.51725397	     -0.39860241	      0.61025476	     -0.90151511	     93.50099244	    -10.12584274	     -4.88910492	     97.75047334	      1.70606761	     37.74168129	      0.00000000	      0.00000000	     95.21779025	    -20.22311109	      1.49435662	     97.16061611	      1.69577265	     36.12192516	      0.00000000	      0.00000000	     -9.82036286	    -13.77613557	     -8.43315374	     18.27479228	    -38.99314655	     82.06885738	     80.19541146	     87.94109208	      0.00000000	      0.00000000	     12.53139099	    -61.06277818	     83.32471860	    105.80389398	     87.89024619	      0.00000000	      0.00000000
      4.53000000	    -32.76805030	     -1.70983131	     -2.50830756	     -0.39866003	      0.61030415	     -0.90142205	     93.58905701	    -10.09136785	     -4.84822232	     97.70928165	      1.70534867	     37.74339704	      0.00000000	      0.00000000	     95.29820949	    -20.18173002	      1.50007125	     97.13343681	      1.69529829	     36.13183908	      0.00000000	      0.00000000	    -11.05248615	    -13.70994275	    -10.93659565	     20.76080544	    -38.19903192	     84.40335749	     80.19123164	     88.04900791	      0.00000000	      0.00000000	      1.07989060	    -61.74818952	     70.54240544	    106.38948633	     87.92493675	      0.00000000	      0.00000000
      4.53500000	    -32.62954026	     -1.73026110	     -2.54276150	     -0.39886793	      0.61043565	     -0.90143906	     93.47608305	    -10.04234234	     -4.84393543	     97.71532582	      1.70545417	     37.73467152	      0.00000000	      0.00000000	     95.17529134	    -20.22035344	      1.52259332	     97.12502312	      1.69515144	     36.12523944	      0.00000000	      0.00000000	     -9.89794289	    -13.81708576	     -8.40533447	     18.32451848	    -38.96399381	     82.15743704	     80.17133718	     87.95740229	      0.00000000	      0.00000000	     12.60626949	    -61.10912081	     83.40455144	    105.85900810	     87.87018456	      0.00000000	      0.00000000
      4.54000000	    -32.66739687	     -1.78806249	     -2.56336746	     -0.39915691	      0.61048759	     -0.90139002	     93.49747988	     -9.99792627	     -4.89732081	     97.66320769	      1.70454453	     37.68823075	      0.00000000	      0.00000000	     95.25405677	    -20.21597374	      1.60912078	     97.09169726	      1.69456979	     36.10311513	      0.00000000	      0.00000000	     -9.88017604	    -13.74108999	     -8.33413791	     18.32918651	    -38.99744573	     82.17841986	     80.20785088	     87.95337416	      0.00000000	      0.00000000	     12.76741720	    -61.06308474	     83.57259018	    105.84668160	     87.86355362	      0.00000000	      0.00000000
